<svg width="64" height="64" viewBox="0 0 64 64" fill="none" xmlns="http://www.w3.org/2000/svg">
  <!-- Background circle for better visibility -->
  <circle cx="32" cy="32" r="32" fill="#ffffff"/>
  
  <!-- Main "C" letter in Credli blue -->
  <path d="M45 32C45 39.732 38.732 46 31 46H20C15.029 46 11 41.971 11 37V27C11 22.029 15.029 18 20 18H31C38.732 18 45 24.268 45 32Z" fill="#3454D1"/>
  
  <!-- Inner cutout to create the "C" shape -->
  <path d="M37 32C37 35.314 34.314 38 31 38H24C22.895 38 22 37.105 22 36V28C22 26.895 22.895 26 24 26H31C34.314 26 37 28.686 37 32Z" fill="#ffffff"/>
  
  <!-- Orange dot representing ".ai" -->
  <circle cx="50" cy="46" r="4" fill="#F77F00"/>
</svg>