<svg width="64" height="64" viewBox="0 0 64 64" fill="none" xmlns="http://www.w3.org/2000/svg">
  <!-- Blue background circle -->
  <circle cx="32" cy="32" r="32" fill="#3454D1"/>
  
  <!-- Large white "C" taking up most of the space -->
  <path d="M48 32C48 42.493 39.493 51 29 51H18C12.477 51 8 46.523 8 41V23C8 17.477 12.477 13 18 13H29C39.493 13 48 21.507 48 32Z" fill="#ffffff"/>
  
  <!-- Inner cutout to create the "C" opening -->
  <path d="M38 32C38 37.523 33.523 42 28 42H22C20.895 42 20 41.105 20 40V24C20 22.895 20.895 22 22 22H28C33.523 22 38 26.477 38 32Z" fill="#3454D1"/>
  
  <!-- Orange accent dot -->
  <circle cx="52" cy="52" r="6" fill="#F77F00"/>
</svg>